<svg width="100% " viewBox="0 0 24 24" fill="none" xmlns="http://www.w3.org/2000/svg">
    <path fill-rule="evenodd" clip-rule="evenodd" d="M19.6339 5.36612C20.122 5.85427 20.122 6.64573 19.6339 7.13388L7.13388 19.6339C6.64573 20.122 5.85427 20.122 5.36612 19.6339C4.87796 19.1457 4.87796 18.3543 5.36612 17.8661L17.8661 5.36612C18.3543 4.87796 19.1457 4.87796 19.6339 5.36612Z" fill="currentColor"/>
    <path fill-rule="evenodd" clip-rule="evenodd" d="M5 6.25C5 5.55964 5.55964 5 6.25 5H18.75C19.4404 5 20 5.55964 20 6.25V18.75C20 19.4404 19.4404 20 18.75 20C18.0596 20 17.5 19.4404 17.5 18.75V7.5H6.25C5.55964 7.5 5 6.94036 5 6.25Z" fill="currentColor"/>
</svg>
